<svg id="Layer_1" data-name="Layer 1" xmlns="http://www.w3.org/2000/svg" viewBox="0 0 497.52 497.52"><defs><style>.cls-1{fill:#fff;}</style></defs><circle cx="248.76" cy="248.76" r="248.76"/><path class="cls-1" d="M793.94,192.74c-3.09-2.83-7.57-2.15-9.28.37-1.3,1.92-1,4.94.9,7.17,13.13,14.91,53.94,65.12,51.49,135-2.2,62.87-50.16,171.34-131.33,170a95.91,95.91,0,0,1-25-3.82,42.81,42.81,0,0,0,10.12-3.84c.32-.17.54-.3.64-.34,72.21-40.8,96.07-101.68,96.07-101.68,5.55-14.17,28.17-77.54-4.83-139.14a153.94,153.94,0,0,0-54.33-57.55c-85.41-52.62-190.49,2.36-198.08,6.48C440.26,254.2,424.63,347.41,422,358.36c-1,4.07,1.77,7.67,4.81,7.94,2.31.21,4.82-1.49,5.84-4.26,6.71-18.69,30.95-78.68,93.26-110.3,56.11-28.46,174.24-38.9,212.29,32.81a95.36,95.36,0,0,1,8.52,22.88,44,44,0,0,0-12.53-10.22l-.65-.33c-73.88-37.68-137.82-24-137.82-24-14.87,3.19-80.2,19.32-113.33,80.86a154,154,0,0,0-18,77.08c3.3,100.26,107.16,157.51,114.78,161.56,90.49,48.12,176.84,9.68,187.4,5.82,3.94-1.43,5.43-5.72,4-8.41-1.1-2-3.91-3.19-6.77-2.51C744.51,592,681.11,605,620.33,570.47c-54.7-31.05-128.64-123.78-89.86-195.09a93.08,93.08,0,0,1,11.75-16.83c-.06.75-.09,1.51-.1,2.27v.73c.81,82.93,42.58,133.26,42.58,133.26,9.71,11.7,54.25,62.13,124.13,63a154,154,0,0,0,76.65-19.76c87.34-49.33,90-167.89,90.06-176.52C876.32,259.06,802.26,200.32,793.94,192.74ZM574.41,335.24c0-.79,0-1.54,0-2.25,43.79-24.07,107.75-27.54,167.47,4.68a45.21,45.21,0,0,0,7.58,3.53c-2.88,50.67-35.41,107.73-96.62,140.46a53.22,53.22,0,0,0-6,3.56C605.68,457.35,573.5,402.58,574.41,335.24Z" transform="translate(-408.01 -138.72)"/></svg>